# xmcd CD database file
#
# Track frame offsets:
#	150
#	17637
#	36867
#	65015
#	105135
#	132620
#
# Disc length: 2498 seconds
#
# Revision: 0
# Processed by: cddbd v1.4PL0 Copyright (c) Steve Scherf et al.
# Submitted via: CDex 1.50
#
DISCID=4a09c006
DTITLE=風潮 - 心靈音樂
DYEAR=1900
DGENRE=New Age
TTITLE0=天泉
TTITLE1=深藍
TTITLE2=逍遙遊
TTITLE3=素顏鴿
TTITLE4=未央
TTITLE5=櫻花雨
EXTD=
EXTT0=
EXTT1=
EXTT2=
EXTT3=
EXTT4=
EXTT5=
PLAYORDER=
